<?xml version="1.0" encoding="utf-8"?>
<!-- Generator: Adobe Illustrator 20.0.0, SVG Export Plug-In . SVG Version: 6.00 Build 0)  -->
<svg version="1.1" id="레이어_1" xmlns="http://www.w3.org/2000/svg" xmlns:xlink="http://www.w3.org/1999/xlink" x="0px"
	 y="0px" viewBox="0 0 20 20" style="enable-background:new 0 0 20 20;" xml:space="preserve">
<style type="text/css">
	.st0{fill:#EEEDEC;}
	.st1{fill:#EEEDED;}
</style>
<g>
	<path class="st0" d="M3,6.9h1.6v0.4H4.1v1.5H3.6V7.3H3V6.9z"/>
	<path class="st0" d="M6,8.8L5.7,8.3h0H5.3v0.5H4.8V6.9h0.9C6,6.9,6.1,7,6.3,7.1c0.1,0.1,0.2,0.3,0.2,0.5c0,0.1,0,0.3-0.1,0.4
		C6.3,8.1,6.3,8.2,6.2,8.2l0.4,0.6H6z M5.3,7.9h0.4c0.1,0,0.2,0,0.2-0.1C6,7.8,6,7.7,6,7.6c0-0.1,0-0.2-0.1-0.2
		c-0.1,0-0.1-0.1-0.2-0.1H5.3V7.9z"/>
	<path class="st0" d="M6.8,6.9h0.5v1.9H6.8V6.9z"/>
	<path class="st0" d="M9.1,7.1c0.1,0.1,0.2,0.3,0.2,0.5c0,0.2-0.1,0.4-0.2,0.5C8.9,8.2,8.8,8.3,8.5,8.3H8.2v0.5H7.7V6.9h0.8
		C8.8,6.9,8.9,7,9.1,7.1z M8.7,7.8c0.1-0.1,0.1-0.1,0.1-0.2c0-0.1,0-0.2-0.1-0.2c-0.1,0-0.1-0.1-0.2-0.1H8.2v0.6h0.3
		C8.6,7.9,8.7,7.9,8.7,7.8z"/>
	<path class="st0" d="M9.5,6.9H10v1.5h0.8v0.4H9.5V6.9z"/>
	<path class="st0" d="M11,6.9h1.5v0.4h-1v0.4h0.9v0.4l-0.9,0v0.4h1v0.4H11V6.9z"/>
	<path class="st0" d="M3.2,10.1h0.5v1.5h0.8V12H3.2V10.1z"/>
	<path class="st0" d="M6.1,12L6,11.6H5.2L5,12H4.5l0.8-1.9h0.5L6.6,12H6.1z M5.3,11.3h0.5l-0.3-0.7L5.3,11.3z"/>
	<path class="st0" d="M8.1,10.1c0.1,0,0.2,0.1,0.2,0.2c0.1,0.1,0.1,0.2,0.1,0.3c0,0.1,0,0.2-0.1,0.3c-0.1,0.1-0.1,0.1-0.2,0.2
		c0.1,0,0.2,0.1,0.3,0.2c0.1,0.1,0.1,0.2,0.1,0.3c0,0.1,0,0.2-0.1,0.3c-0.1,0.1-0.1,0.1-0.3,0.2C8,11.9,7.9,12,7.8,12H6.8v-1.9h0.9
		C7.9,10.1,8,10.1,8.1,10.1z M7.9,10.8c0,0,0.1-0.1,0.1-0.1c0-0.1,0-0.1-0.1-0.1c0,0-0.1,0-0.2,0H7.3v0.4h0.4
		C7.8,10.8,7.8,10.8,7.9,10.8z M7.9,11.5c0.1,0,0.1-0.1,0.1-0.2c0-0.1,0-0.1-0.1-0.1c-0.1,0-0.1-0.1-0.2-0.1H7.3v0.4h0.4
		C7.8,11.6,7.8,11.6,7.9,11.5z"/>
	<rect x="3" y="5.3" class="st0" width="0.8" height="0.2"/>
	<rect x="3" y="13.4" class="st0" width="0.8" height="0.2"/>
	<g>
		<g>
			<polygon class="st0" points="17.8,2.4 17.8,18.7 1.5,18.7 1,19.3 18.3,19.3 18.3,1.9 18.3,1.9 			"/>
			<path class="st1" d="M18.4,19.4H0.7l0.7-0.7h16.2V2.4l0.6-0.6h0.1l0,0.1V19.4z M1.2,19.2h17v-17l-0.3,0.3v16.4H1.5L1.2,19.2z"/>
		</g>
	</g>
	<g>
		<g>
			<polygon class="st0" points="1.5,0.7 1.5,18 1.5,18 2.1,17.5 2.1,1.2 18.3,1.2 18.9,0.7 			"/>
			<path class="st1" d="M1.4,18.3l0-17.7h17.7l-0.7,0.7H2.2v16.2L1.4,18.3z M1.6,0.8v17L2,17.4V1.1h16.3l0.3-0.3H1.6z"/>
		</g>
		<g>
			<polyline class="st0" points="18.9,0.7 18.9,0.7 18.3,1.2 			"/>
			<polygon class="st1" points="18.4,1.3 18.3,1.1 18.8,0.6 18.9,0.6 18.9,0.7 18.9,0.7 			"/>
		</g>
	</g>
</g>
</svg>
